#!OML:ASF H:\Pregnant\Project 1\Capture day 1\Session 1\femalepreg.ASF
:FULLY-SPECIFIED
:DEGREES
1168
root 1.58719 15.3086 33.9212 -155.63 185.533 -176.99
lowerback -18.0768 -1.38634 9.24484
upperback -3.28256 -3.92442 4.23421
thorax 6.25775 -1.78105 -1.56966
lowerneck -10.3111 -10.6703 -9.34081
upperneck 20.8217 -14.3165 5.29846
head 9.31256 -6.9271 1.62361
rclavicle 1.59028e-014 -4.6118e-014
rhumerus -20.8084 7.11738 -73.1101
rradius 28.5915
rwrist -10.2808
rhand -25.8304 -20.1252
rfingers 7.12502
rthumb 0.709567 -50.1038
lclavicle 1.59028e-014 -4.6118e-014
lhumerus -37.5861 -15.3479 91.4337
lradius 31.7159
lwrist 20.2702
lhand -21.8867 -8.55623
lfingers 7.12502
lthumb 4.51821 21.3756
rfemur -48.1097 12.8524 17.3764
rtibia 43.6907
rfoot -12.9769 -16.4463
rtoes -9.89492
lfemur -38.1789 -1.09863 -26.7811
ltibia 48.2718
lfoot -8.75316 6.68447
ltoes -25.9213
1169
root 1.57561 15.2993 34.0016 -155.713 185.93 -176.942
lowerback -18.036 -1.39931 9.23706
upperback -3.2654 -3.93258 4.17213
thorax 6.24947 -1.78503 -1.63239
lowerneck -10.2822 -10.6787 -9.3819
upperneck 20.8082 -14.3276 5.31526
head 9.30815 -6.93509 1.63536
rclavicle 1.63003e-014 -2.54444e-014
rhumerus -20.7215 6.46091 -72.9076
rradius 28.1748
rwrist -9.94553
rhand -26.1973 -20.4829
rfingers 7.12502
rthumb 0.355225 -50.4624
lclavicle 1.63003e-014 -2.54444e-014
lhumerus -37.1474 -15.2206 90.9813
lradius 32.1825
lwrist 21.3536
lhand -23.1762 -8.765
lfingers 7.12502
lthumb 3.27289 21.1896
rfemur -47.8688 13.0095 17.3818
rtibia 43.9314
rfoot -13.3324 -16.3664
rtoes -10.0954
lfemur -38.8159 -1.03382 -26.8723
ltibia 47.7291
lfoot -9.03433 7.1566
ltoes -25.9665
1170
root 1.5646 15.2902 34.0822 -155.798 186.33 -176.898
lowerback -17.9995 -1.41098 9.23737
upperback -3.24716 -3.94064 4.10273
thorax 6.24348 -1.78861 -1.70758
lowerneck -10.2674 -10.681 -9.41397
upperneck 20.794 -14.3294 5.32684
head 9.30414 -6.9383 1.64462
rclavicle -1.98785e-015 -2.38542e-014
rhumerus -20.5793 5.70727 -72.7152
rradius 27.6523
rwrist -9.51037
rhand -26.5111 -20.7819
rfingers 7.12502
rthumb 0.0521507 -50.7616
lclavicle -1.98785e-015 -2.38542e-014
lhumerus -36.7142 -15.0555 90.5072
lradius 32.6771
lwrist 22.596
lhand -24.3752 -8.94721
lfingers 7.12502
lthumb 2.115 21.0221
rfemur -47.6153 13.1715 17.3861
rtibia 44.1559
rfoot -13.6824 -16.2854
rtoes -10.2911
lfemur -39.4367 -1.02975 -26.9288
ltibia 47.1434
lfoot -9.27776 7.65526
ltoes -25.9271
1171
root 1.55403 15.2815 34.1632 -155.88 186.737 -176.86
lowerback -17.9678 -1.42247 9.23918
upperback -3.23326 -3.94911 4.03482
thorax 6.23535 -1.79258 -1.78216
lowerneck -10.2523 -10.677 -9.45126
upperneck 20.7654 -14.32 5.33796
head 9.2946 -6.93694 1.65633
rclavicle -4.57205e-014 3.81667e-014
rhumerus -20.4104 4.9251 -72.5329
rradius 27.0846
rwrist -9.02719
rhand -26.7685 -21.0593
rfingers 7.12502
rthumb -0.196525 -51.039
lclavicle -4.57205e-014 3.81667e-014
lhumerus -36.2892 -14.8275 90.0179
lradius 33.1966
lwrist 23.9574
lhand -25.4399 -9.07017
lfingers 7.12502
lthumb 1.0867 20.9068
rfemur -47.3568 13.3461 17.3878
rtibia 44.3621
rfoot -14.0204 -16.2082
rtoes -10.4876
lfemur -40.0524 -1.07996 -26.9455
ltibia 46.5273
lfoot -9.48543 8.16849
ltoes -25.7933
1172
root 1.54385 15.2732 34.2446 -155.954 187.148 -176.838
lowerback -17.9439 -1.43521 9.24635
upperback -3.22336 -3.96146 3.97395
thorax 6.22688 -1.79851 -1.85322
lowerneck -10.2288 -10.6648 -9.49495
upperneck 20.7135 -14.2968 5.34904
head 9.27481 -6.93014 1.67181
rclavicle -7.15625e-015 -7.15625e-014
rhumerus -20.211 4.11271 -72.3583
rradius 26.4704
rwrist -8.49328
rhand -26.9734 -21.3127
rfingers 7.12502
rthumb -0.394355 -51.292
lclavicle -7.15625e-015 -7.15625e-014
lhumerus -35.869 -14.5215 89.5088
lradius 33.7446
lwrist 25.4261
lhand -26.3635 -9.12519
lfingers 7.12502
lthumb 0.194692 20.8545
rfemur -47.0891 13.5288 17.3981
rtibia 44.5404
rfoot -14.3449 -16.1268
rtoes -10.6731
lfemur -40.6699 -1.17803 -26.9114
ltibia 45.8927
lfoot -9.6662 8.67351
ltoes -25.5367
1173
root 1.53374 15.2646 34.3261 -156.014 187.566 -176.831
lowerback -17.9284 -1.44582 9.25566
upperback -3.22119 -3.97226 3.91845
thorax 6.21496 -1.80408 -1.91956
lowerneck -10.2083 -10.6502 -9.53895
upperneck 20.6508 -14.2677 5.35319
head 9.25081 -6.92129 1.68591
rclavicle -5.56597e-015 9.54166e-015
rhumerus -20.0496 3.3827 -72.2047
rradius 25.9161
rwrist -8.03123
rhand -27.1298 -21.5671
rfingers 7.12502
rthumb -0.545432 -51.5461
lclavicle -5.56597e-015 9.54166e-015
lhumerus -35.4592 -14.1555 88.9893
lradius 34.321
lwrist 26.9896
lhand -27.1343 -9.10287
lfingers 7.12502
lthumb -0.549834 20.8762
rfemur -46.8232 13.7307 17.4122
rtibia 44.6913
rfoot -14.6505 -16.0518
rtoes -10.8631
lfemur -41.3039 -1.29928 -26.8301
ltibia 45.253
lfoot -9.82693 9.13788
ltoes -25.2288
1174
root 1.52367 15.2568 34.4087 -156.074 187.996 -176.853
lowerback -17.9231 -1.44775 9.28357
upperback -3.21833 -3.97701 3.86913
thorax 6.20899 -1.80611 -1.9887
lowerneck -10.1669 -10.6321 -9.59143
upperneck 20.5599 -14.2339 5.36681
head 9.21427 -6.91081 1.70668
rclavicle -3.18055e-015 -2.38542e-014
rhumerus -19.9262 2.7365 -72.0756
rradius 25.4312
rwrist -7.65018
rhand -27.2483 -21.8093
rfingers 7.12502
rthumb -0.659878 -51.788
lclavicle -3.18055e-015 -2.38542e-014
lhumerus -35.0607 -13.7498 88.4688
lradius 34.9201
lwrist 28.6444
lhand -27.7248 -8.94213
lfingers 7.12502
lthumb -1.1201 21.0347
rfemur -46.5306 13.9538 17.4508
rtibia 44.8023
rfoot -14.9364 -15.9734
rtoes -11.0562
lfemur -41.9325 -1.44422 -26.6827
ltibia 44.6116
lfoot -9.98003 9.55969
ltoes -24.8663
1175
root 1.51333 15.2495 34.4913 -156.122 188.435 -176.894
lowerback -17.9236 -1.44704 9.31276
upperback -3.22376 -3.97906 3.82551
thorax 6.19773 -1.80734 -2.05192
lowerneck -10.1203 -10.6114 -9.6481
upperneck 20.4597 -14.1961 5.3819
head 9.17367 -6.89879 1.72955
rclavicle -1.03368e-014 1.59028e-015
rhumerus -19.8698 2.1978 -71.967
rradius 25.0432
rwrist -7.36554
rhand -27.3076 -22.0288
rfingers 7.12502
rthumb -0.717223 -52.0074
lclavicle -1.03368e-014 1.59028e-015
lhumerus -34.6804 -13.2925 87.9474
lradius 35.5388
lwrist 30.3424
lhand -28.1738 -8.69091
lfingers 7.12502
lthumb -1.55382 21.2832
rfemur -46.2286 14.1938 17.4992
rtibia 44.8705
rfoot -15.1972 -15.8921
rtoes -11.2448
lfemur -42.5675 -1.61281 -26.4811
ltibia 43.9691
lfoot -10.1055 9.92641
ltoes -24.5306
1176
root 1.50295 15.2436 34.5742 -156.166 188.871 -176.952
lowerback -17.9306 -1.44537 9.34983
upperback -3.22539 -3.9828 3.78592
thorax 6.19375 -1.80884 -2.11592
lowerneck -10.0943 -10.5914 -9.70077
upperneck 20.3561 -14.158 5.39795
head 9.13542 -6.88562 1.75109
rclavicle -7.35503e-014 2.06736e-014
rhumerus -19.8478 1.78305 -71.8875
rradius 24.7329
rwrist -7.20105
rhand -27.3239 -22.224
rfingers 7.12502
rthumb -0.732891 -52.2025
lclavicle -7.35503e-014 2.06736e-014
lhumerus -34.2998 -12.8134 87.4305
lradius 36.1693
lwrist 32.0795
lhand -28.4876 -8.32701
lfingers 7.12502
lthumb -1.85682 21.6447
rfemur -45.8965 14.4401 17.5638
rtibia 44.8852
rfoot -15.4306 -15.8082
rtoes -11.4297
lfemur -43.1951 -1.82402 -26.216
ltibia 43.3172
lfoot -10.1935 10.2358
ltoes -24.2268
1177
root 1.4924 15.2399 34.657 -156.204 189.302 -177.023
lowerback -17.9457 -1.44353 9.38861
upperback -3.22724 -3.98796 3.74987
thorax 6.19393 -1.81083 -2.17774
lowerneck -10.0666 -10.5701 -9.75777
upperneck 20.2401 -14.1189 5.42503
head 9.09372 -6.87136 1.77733
rclavicle -7.95139e-015 1.59028e-015
rhumerus -19.8977 1.50498 -71.8316
rradius 24.5441
rwrist -7.15671
rhand -27.277 -22.3763
rfingers 7.12502
rthumb -0.687608 -52.355
lclavicle -7.95139e-015 1.59028e-015
lhumerus -33.9261 -12.3142 86.9216
lradius 36.8131
lwrist 33.8147
lhand -28.6996 -7.86721
lfingers 7.12502
lthumb -2.06162 22.1026
rfemur -45.5384 14.6891 17.6393
rtibia 44.847
rfoot -15.6358 -15.7218
rtoes -11.6085
lfemur -43.8197 -2.09229 -25.8784
ltibia 42.6485
lfoot -10.2503 10.4624
ltoes -23.7907
1178
root 1.48186 15.2383 34.7391 -156.231 189.719 -177.104
lowerback -17.9679 -1.44969 9.42637
upperback -3.22634 -4.0049 3.71815
thorax 6.20013 -1.81823 -2.23727
lowerneck -10.0677 -10.5448 -9.79835
upperneck 20.1237 -14.0744 5.45096
head 9.05531 -6.85258 1.79996
rclavicle 3.57812e-014 -7.95139e-015
rhumerus -19.9463 1.26169 -71.7936
rradius 24.3719
rwrist -7.11707
rhand -27.1704 -22.4797
rfingers 7.12502
rthumb -0.584665 -52.4587
lclavicle 3.57812e-014 -7.95139e-015
lhumerus -33.5483 -11.8021 86.4171
lradius 37.4662
lwrist 35.5495
lhand -28.8896 -7.40672
lfingers 7.12502
lthumb -2.24509 22.5612
rfemur -45.1624 14.9269 17.7257
rtibia 44.7598
rfoot -15.8209 -15.6253
rtoes -11.7526
lfemur -44.4417 -2.42094 -25.474
ltibia 41.9561
lfoot -10.249 10.6157
ltoes -23.3632
1179
root 1.47127 15.2377 34.8202 -156.251 190.127 -177.191
lowerback -17.9906 -1.4594 9.45677
upperback -3.22466 -4.02546 3.68933
thorax 6.20781 -1.82746 -2.29046
lowerneck -10.0839 -10.5183 -9.83093
upperneck 20.0044 -14.0286 5.48126
head 9.01821 -6.83182 1.82225
rclavicle -1.11319e-014 3.02153e-014
rhumerus -20.0183 1.08918 -71.7798
rradius 24.2701
rwrist -7.11461
rhand -26.9998 -22.5749
rfingers 7.12502
rthumb -0.419854 -52.5542
lclavicle -1.11319e-014 3.02153e-014
lhumerus -33.1746 -11.2901 85.931
lradius 38.1289
lwrist 37.275
lhand -29.1174 -7.04467
lfingers 7.12502
lthumb -2.46512 22.9208
rfemur -44.7768 15.1576 17.8185
rtibia 44.6379
rfoot -15.985 -15.5214
rtoes -11.8782
lfemur -45.0563 -2.79852 -25.0108
ltibia 41.2402
lfoot -10.1833 10.6955
ltoes -23.0589
1180
root 1.46084 15.2374 34.9004 -156.266 190.532 -177.286
lowerback -18.0112 -1.47622 9.47944
upperback -3.22125 -4.05445 3.66893
thorax 6.21656 -1.8409 -2.33212
lowerneck -10.1216 -10.486 -9.85439
upperneck 19.8897 -13.9731 5.50405
head 8.98453 -6.80588 1.84082
rclavicle -4.13472e-014 -4.13472e-014
rhumerus -20.067 0.92236 -71.7752
rradius 24.1571
rwrist -7.07208
rhand -26.7774 -22.6215
rfingers 7.12502
rthumb -0.205141 -52.6011
lclavicle -4.13472e-014 -4.13472e-014
lhumerus -32.804 -10.7668 85.4665
lradius 38.796
lwrist 38.9787
lhand -29.3564 -6.77361
lfingers 7.12502
lthumb -2.69594 23.1891
rfemur -44.3863 15.3765 17.9201
rtibia 44.4933
rfoot -16.1422 -15.4004
rtoes -11.9674
lfemur -45.6591 -3.21833 -24.4918
ltibia 40.5039
lfoot -10.0532 10.707
ltoes -22.9272
1181
root 1.45051 15.2359 34.9798 -156.277 190.943 -177.391
lowerback -18.0264 -1.49432 9.49688
upperback -3.21993 -4.08362 3.65291
thorax 6.22077 -1.85487 -2.36596
lowerneck -10.171 -10.4497 -9.86634
upperneck 19.784 -13.9117 5.51851
head 8.95406 -6.77678 1.85498
rclavicle 1.78906e-014 2.54444e-014
rhumerus -20.1215 0.818806 -71.7952
rradius 24.0768
rwrist -7.0444
rhand -26.5099 -22.6716
rfingers 7.12502
rthumb 0.0532429 -52.6513
lclavicle 1.78906e-014 2.54444e-014
lhumerus -32.4488 -10.253 85.0289
lradius 39.4645
lwrist 40.6489
lhand -29.6175 -6.63624
lfingers 7.12502
lthumb -2.94806 23.3231
rfemur -43.9973 15.5869 18.0318
rtibia 44.3388
rfoot -16.2949 -15.2589
rtoes -12.0397
lfemur -46.2507 -3.63313 -23.9396
ltibia 39.7567
lfoot -9.84836 10.6342
ltoes -23.1182
